<?xml version="1.0" standalone="no"?><svg xmlns="http://www.w3.org/2000/svg" viewBox="0 0 1440 320"><path fill="#0c0c0c" fill-opacity="1" d="M0,288L24,245.3C48,203,96,117,144,112C192,107,240,181,288,186.7C336,192,384,128,432,96C480,64,528,64,576,85.3C624,107,672,149,720,160C768,171,816,149,864,122.7C912,96,960,64,1008,74.7C1056,85,1104,139,1152,170.7C1200,203,1248,213,1296,192C1344,171,1392,117,1416,90.7L1440,64L1440,0L1416,0C1392,0,1344,0,1296,0C1248,0,1200,0,1152,0C1104,0,1056,0,1008,0C960,0,912,0,864,0C816,0,768,0,720,0C672,0,624,0,576,0C528,0,480,0,432,0C384,0,336,0,288,0C240,0,192,0,144,0C96,0,48,0,24,0L0,0Z"></path></svg>