<?xml version="1.0" standalone="no"?><svg xmlns="http://www.w3.org/2000/svg" viewBox="0 0 1440 320"><path fill="#0c0c0c" fill-opacity="1" d="M0,160L24,186.7C48,213,96,267,144,245.3C192,224,240,128,288,74.7C336,21,384,11,432,53.3C480,96,528,192,576,208C624,224,672,160,720,112C768,64,816,32,864,26.7C912,21,960,43,1008,64C1056,85,1104,107,1152,122.7C1200,139,1248,149,1296,133.3C1344,117,1392,75,1416,53.3L1440,32L1440,0L1416,0C1392,0,1344,0,1296,0C1248,0,1200,0,1152,0C1104,0,1056,0,1008,0C960,0,912,0,864,0C816,0,768,0,720,0C672,0,624,0,576,0C528,0,480,0,432,0C384,0,336,0,288,0C240,0,192,0,144,0C96,0,48,0,24,0L0,0Z"></path></svg>